# Blender v2.79 (sub 0) OBJ File: ''
# www.blender.org
mtllib NaveEnemigo4.mtl
o Cube_Cube.001
v -2.230328 1.298482 0.507068
v -1.913682 1.893353 0.943492
v -2.230328 1.298482 -0.512175
v -1.913682 1.893353 -0.948599
v 0.599108 0.515592 0.959752
v -0.114005 1.975910 1.262946
v 0.599108 0.515592 -0.964859
v -0.114005 1.975910 -1.268054
v -2.231712 1.549547 0.516627
v -2.231712 1.549547 -0.521734
v 0.813286 1.118459 -0.946918
v 0.813286 1.118459 0.941811
v -2.513434 1.549547 0.473554
v -2.513434 2.033334 0.473554
v -2.513434 1.549547 -0.478661
v -2.513434 1.081119 -0.478661
v 0.777508 0.170547 -1.002553
v -2.513434 2.033334 -0.478661
v 0.470113 2.170547 -1.002553
v 1.122451 1.154418 -1.002553
v 1.122451 1.154418 0.997447
v 0.777508 0.170547 0.997447
v -2.513434 1.081119 0.473554
v 0.470113 2.170547 0.997447
v 0.602773 1.072049 1.858428
v -2.314961 1.467964 1.451636
v -2.314961 1.467964 -1.456743
v 0.602773 1.072049 -1.863535
v -1.940674 1.880644 1.110977
v -2.308181 1.381822 -1.442194
v 0.436174 0.622479 -1.881857
v -1.940674 1.880644 -1.116084
v -0.140997 1.963201 -1.435539
v 0.436174 0.622479 1.876750
v -2.308181 1.381822 1.437087
v -0.140997 1.963201 1.430432
v 2.222403 2.362913 3.867056
v -3.767371 2.749594 3.034081
v -3.767371 2.749594 -3.039187
v 2.222403 2.362913 -3.872163
v -3.764466 2.805907 2.977006
v -3.764466 2.805907 -2.982113
v 1.374354 2.918042 -3.896589
v 1.374354 2.918042 3.891482
v 1.075522 1.155936 -0.861380
v 0.779275 0.310961 -0.861380
v 0.779275 0.310961 0.856274
v 0.515276 2.028615 -0.861380
v 0.515276 2.028615 0.856274
v 1.075522 1.155936 0.856274
v 0.998989 1.146959 -0.861380
v 0.702742 0.301984 -0.861380
v 0.702742 0.301984 0.856274
v 0.438743 2.019638 -0.861380
v 0.438743 2.019638 0.856274
v 0.998989 1.146959 0.856274
v -2.229088 1.761850 -0.505434
v 0.322724 1.878909 -0.958398
v 0.322724 1.878909 0.953291
v -2.229088 1.761850 0.500327
v -2.377403 1.692014 -1.425739
v 0.174408 1.809074 -1.878703
v 0.174408 1.809074 1.873596
v -2.377403 1.692014 1.420632
v 0.676178 1.116829 1.866492
v -2.371772 1.530387 1.440668
v -2.371772 1.530387 -1.445775
v 0.676178 1.116829 -1.871599
v -2.359981 1.339869 -1.437007
v 0.469455 0.556978 -1.889690
v 0.469455 0.556978 1.884583
v -2.359981 1.339869 1.431900
v 2.073267 0.132502 3.684235
v -3.707055 0.456806 2.878340
v -3.707055 0.456806 -2.883446
v 2.073267 0.132502 -3.689342
v -3.693624 0.223390 -2.854624
v 1.743217 -0.304625 -3.725641
v 1.743217 -0.304625 3.720534
v -3.693624 0.223390 2.849517
v -1.938401 2.321800 -0.948599
v -0.138723 2.404356 -1.268054
v -0.138723 2.404356 1.262946
v -1.938401 2.321800 0.943492
v -1.965392 2.309090 -1.116084
v -0.165715 2.391647 -1.435539
v -0.165715 2.391647 1.430432
v -1.965392 2.309090 1.110977
vn -1.0000 0.0000 0.0000
vn -0.2675 -0.9635 -0.0056
vn 0.9529 0.3032 0.0000
vn 0.9322 -0.3331 0.1416
vn -0.2667 -0.9638 0.0000
vn -0.0459 0.9989 0.0000
vn -0.9893 -0.0235 -0.1440
vn 0.8116 0.5210 0.2642
vn -0.9893 -0.0235 0.1440
vn -0.1112 0.0237 0.9935
vn -0.1293 -0.0134 -0.9915
vn -0.1480 0.0349 -0.9884
vn -0.1701 -0.0717 -0.9828
vn -0.1486 0.0635 -0.9869
vn -0.1486 0.0635 0.9869
vn -0.1480 0.0349 0.9884
vn -0.1701 -0.0717 0.9828
vn -0.1293 -0.0134 0.9915
vn -0.1112 0.0237 -0.9935
vn -0.1441 -0.0991 -0.9846
vn -0.1441 -0.0991 0.9846
vn -0.7314 0.0461 0.6804
vn 0.6263 -0.3923 0.6736
vn -0.9876 -0.0231 0.1555
vn -0.2675 -0.9635 0.0056
vn 0.9850 0.0568 -0.1631
vn 0.8175 0.5566 -0.1480
vn -0.9876 -0.0231 -0.1555
vn 0.9850 0.0568 0.1631
vn 0.9322 -0.3331 -0.1416
vn 0.8175 0.5566 0.1480
vn -0.1570 -0.1650 -0.9737
vn -0.1570 -0.1650 0.9737
vn 0.0000 0.0000 -1.0000
vn 0.8995 -0.3154 0.3024
vn 0.8116 0.5210 -0.2642
vn 0.8995 -0.3154 -0.3024
vn 0.9999 -0.0126 0.0000
vn 0.8415 0.5402 0.0000
vn 0.9437 -0.3309 0.0000
vn -0.1165 0.9932 0.0000
vn 0.0000 0.0000 1.0000
vn 0.1165 -0.9932 0.0000
vn 0.0074 0.9572 0.2893
vn 0.0074 0.9572 -0.2893
vn -0.1122 0.9111 -0.3967
vn -0.1122 0.9111 0.3967
vn -0.3926 0.9197 -0.0065
vn 0.2953 0.9479 -0.1195
vn -0.3926 0.9197 0.0065
vn 0.2953 0.9479 0.1195
vn -0.1318 0.0472 0.9902
vn -0.1318 0.0472 -0.9902
vn -0.1637 -0.0938 -0.9820
vn -0.1446 0.0493 -0.9883
vn -0.1309 0.0840 -0.9878
vn -0.1309 0.0840 0.9878
vn -0.1446 0.0493 0.9883
vn -0.1637 -0.0938 0.9820
vn -0.1416 0.0779 0.9869
vn -0.1416 0.0779 -0.9869
vn -0.0007 0.8576 0.5144
vn -0.7314 0.0461 -0.6804
vn 0.6263 -0.3923 -0.6736
vn -0.0458 -0.8407 0.5396
vn -0.0007 0.8576 -0.5144
vn -0.0458 -0.8407 -0.5396
vn -0.1504 -0.8123 0.5635
vn -0.1504 -0.8123 -0.5635
vn -0.8042 -0.2072 -0.5570
vn 0.0679 0.8488 0.5243
vn 0.0679 0.8488 -0.5243
vn -0.8042 -0.2072 0.5570
vn 0.4979 0.5556 0.6659
vn 0.4979 0.5556 -0.6659
vn -0.0575 0.9961 -0.0663
vn -0.0575 0.9961 0.0663
vn -0.1743 -0.0101 0.9846
vn 0.1743 0.0101 -0.9846
vn -0.9850 -0.0568 -0.1631
vn -0.9850 -0.0568 0.1631
vn -0.1743 -0.0101 -0.9846
vn 0.1743 0.0101 0.9846
usemtl None
s off
f 13//1 14//1 18//1 15//1
f 7//2 3//2 69//2 70//2
f 19//3 24//3 49//3 48//3
f 5//4 12//4 65//4 71//4
f 16//5 17//5 22//5 23//5
f 19//6 18//6 14//6 24//6
f 9//7 1//7 72//7 66//7
f 20//8 19//8 48//8 45//8
f 3//9 10//9 67//9 69//9
f 23//1 13//1 15//1 16//1
f 9//10 60//10 14//10 13//10
f 10//11 3//11 16//11 15//11
f 3//12 7//12 17//12 16//12
f 58//13 57//13 18//13 19//13
f 7//14 11//14 20//14 17//14
f 12//15 5//15 22//15 21//15
f 5//16 1//16 23//16 22//16
f 60//17 59//17 24//17 14//17
f 1//18 9//18 13//18 23//18
f 57//19 10//19 15//19 18//19
f 11//20 58//20 19//20 20//20
f 59//21 12//21 21//21 24//21
f 30//22 27//22 75//22 77//22
f 28//23 31//23 78//23 76//23
f 10//24 57//24 61//24 67//24
f 1//25 5//25 71//25 72//25
f 8//26 33//26 86//26 82//26
f 58//27 11//27 68//27 62//27
f 60//28 9//28 66//28 64//28
f 36//29 6//29 83//29 87//29
f 11//30 7//30 70//30 68//30
f 12//31 59//31 63//31 65//31
f 39//32 42//32 43//32 40//32
f 37//33 44//33 41//33 38//33
f 50//34 47//34 53//34 56//34
f 49//34 50//34 56//34 55//34
f 17//35 20//35 45//35 46//35
f 24//36 21//36 50//36 49//36
f 21//37 22//37 47//37 50//37
f 22//38 17//38 46//38 47//38
f 51//39 54//39 55//39 56//39
f 52//40 51//40 56//40 53//40
f 47//41 46//41 52//41 53//41
f 45//42 48//42 54//42 51//42
f 48//43 49//43 55//43 54//43
f 46//42 45//42 51//42 52//42
f 8//44 4//44 57//44 58//44
f 2//45 6//45 59//45 60//45
f 32//46 33//46 62//46 61//46
f 36//47 29//47 64//47 63//47
f 4//48 32//48 61//48 57//48
f 33//49 8//49 58//49 62//49
f 29//50 2//50 60//50 64//50
f 6//51 36//51 63//51 59//51
f 26//52 25//52 65//52 66//52
f 28//53 27//53 67//53 68//53
f 27//54 30//54 69//54 67//54
f 30//55 31//55 70//55 69//55
f 31//56 28//56 68//56 70//56
f 25//57 34//57 71//57 65//57
f 34//58 35//58 72//58 71//58
f 35//59 26//59 66//59 72//59
f 79//60 73//60 74//60 80//60
f 77//61 75//61 76//61 78//61
f 25//62 26//62 74//62 73//62
f 26//63 35//63 80//63 74//63
f 34//64 25//64 73//64 79//64
f 31//65 30//65 77//65 78//65
f 27//66 28//66 76//66 75//66
f 35//67 34//67 79//67 80//67
f 37//68 38//68 66//68 65//68
f 39//69 40//69 68//69 67//69
f 38//70 41//70 64//70 66//70
f 43//71 42//71 61//71 62//71
f 41//72 44//72 63//72 64//72
f 42//73 39//73 67//73 61//73
f 40//74 43//74 62//74 68//74
f 44//75 37//75 65//75 63//75
f 81//76 82//76 86//76 85//76
f 83//77 84//77 88//77 87//77
f 29//78 36//78 87//78 88//78
f 6//79 2//79 84//79 83//79
f 2//80 29//80 88//80 84//80
f 32//81 4//81 81//81 85//81
f 33//82 32//82 85//82 86//82
f 4//83 8//83 82//83 81//83
